<?xml version="1.0" encoding="UTF-8" standalone="no"?>
<!DOCTYPE svg PUBLIC "-//W3C//DTD SVG 1.1//EN"
 "http://www.w3.org/Graphics/SVG/1.1/DTD/svg11.dtd">
<!-- Generated by graphviz version 3.0.0 (20220226.1711)
 -->
<!-- Title: g Pages: 1 -->
<svg width="258pt" height="487pt"
 viewBox="0.00 0.00 258.00 487.00" xmlns="http://www.w3.org/2000/svg" xmlns:xlink="http://www.w3.org/1999/xlink">
<g id="page0,1_graph0" class="graph" transform="scale(1 1) rotate(0) translate(4 483)">
<title>g</title>
<polygon fill="white" stroke="transparent" points="-4,4 -4,-483 254,-483 254,4 -4,4"/>
<g id="clust1" class="cluster">
<title>cluster_Hash_Check</title>
<g id="a_clust1"><a xlink:href="https://github.com/Open-Attestation/oa-verify/blob/master/src/verifiers/documentStatus/tokenRegistry/ethereumTokenRegistryStatus.ts#:~:text=const%20verify" xlink:title="openAttestationHash">
<polygon fill="none" stroke="black" points="9,-252 9,-471 241,-471 241,-252 9,-252"/>
<text text-anchor="middle" x="125" y="-455.8" font-family="Helvetica,Arial,sans-serif" font-size="14.00" fill="blue">openAttestationHash</text>
</a>
</g>
</g>
<g id="clust2" class="cluster">
<title>cluster_DidSigned_Check</title>
<g id="a_clust2"><a xlink:href="https://github.com/Open-Attestation/oa-verify/blob/master/src/verifiers/documentStatus/didSigned/didSignedDocumentStatus.ts#:~:text=const%20verify" xlink:title="DidSignedDocumentStatus">
<polygon fill="none" stroke="black" points="8,-93 8,-244 242,-244 242,-93 8,-93"/>
<text text-anchor="middle" x="125" y="-228.8" font-family="Helvetica,Arial,sans-serif" font-size="14.00" fill="blue">DidSignedDocumentStatus</text>
</a>
</g>
</g>
<g id="clust3" class="cluster">
<title>cluster_DnsDid_Check</title>
<g id="a_clust3"><a xlink:href="https://github.com/Open-Attestation/oa-verify/blob/master/src/verifiers/issuerIdentity/dnsDid/dnsDidProof.ts#:~:text=const%20verify" xlink:title="DnsDidIdentityProof">
<polygon fill="none" stroke="black" points="9,-8 9,-85 241,-85 241,-8 9,-8"/>
<text text-anchor="middle" x="125" y="-69.8" font-family="Helvetica,Arial,sans-serif" font-size="14.00" fill="blue">DnsDidIdentityProof</text>
</a>
</g>
</g>
<!-- HashCheckStart -->
<g id="node1" class="node">
<title>HashCheckStart</title>
<polygon fill="none" stroke="black" points="233,-440 17,-440 17,-404 233,-404 233,-440"/>
<text text-anchor="middle" x="125" y="-418.3" font-family="Times,serif" font-size="14.00">Start</text>
</g>
<!-- HashCheckSchema -->
<g id="node2" class="node">
<title>HashCheckSchema</title>
<polygon fill="none" stroke="black" points="233,-368 17,-368 17,-332 233,-332 233,-368"/>
<text text-anchor="middle" x="125" y="-346.3" font-family="Times,serif" font-size="14.00">Check Document Schema</text>
</g>
<!-- HashCheckStart&#45;&gt;HashCheckSchema -->
<g id="edge1" class="edge">
<title>HashCheckStart&#45;&gt;HashCheckSchema</title>
<path fill="none" stroke="black" d="M125,-403.7C125,-395.98 125,-386.71 125,-378.11"/>
<polygon fill="black" stroke="black" points="128.5,-378.1 125,-368.1 121.5,-378.1 128.5,-378.1"/>
</g>
<!-- HashCheckSignature -->
<g id="node3" class="node">
<title>HashCheckSignature</title>
<polygon fill="none" stroke="black" points="233,-296 17,-296 17,-260 233,-260 233,-296"/>
<text text-anchor="middle" x="125" y="-274.3" font-family="Times,serif" font-size="14.00">Verify Signature</text>
</g>
<!-- HashCheckSchema&#45;&gt;HashCheckSignature -->
<g id="edge2" class="edge">
<title>HashCheckSchema&#45;&gt;HashCheckSignature</title>
<path fill="none" stroke="black" d="M125,-331.7C125,-323.98 125,-314.71 125,-306.11"/>
<polygon fill="black" stroke="black" points="128.5,-306.1 125,-296.1 121.5,-306.1 128.5,-306.1"/>
</g>
<!-- DidSignedEndpoint -->
<g id="node4" class="node">
<title>DidSignedEndpoint</title>
<polygon fill="none" stroke="black" points="233.5,-213 16.5,-213 16.5,-175 233.5,-175 233.5,-213"/>
<text text-anchor="middle" x="125" y="-197.8" font-family="Times,serif" font-size="14.00">Ensure that the Revocation Endpoint</text>
<text text-anchor="middle" x="125" y="-182.8" font-family="Times,serif" font-size="14.00"> Details available or None Specified</text>
</g>
<!-- HashCheckSignature&#45;&gt;DidSignedEndpoint -->
<g id="edge3" class="edge">
<title>HashCheckSignature&#45;&gt;DidSignedEndpoint</title>
<path fill="none" stroke="black" d="M125,-259.61C125,-249.07 125,-235.36 125,-223.29"/>
<polygon fill="black" stroke="black" points="128.5,-223.22 125,-213.22 121.5,-223.22 128.5,-223.22"/>
</g>
<!-- DidSignedRevoked -->
<g id="node5" class="node">
<title>DidSignedRevoked</title>
<polygon fill="none" stroke="black" points="233,-139 17,-139 17,-101 233,-101 233,-139"/>
<text text-anchor="middle" x="125" y="-123.8" font-family="Times,serif" font-size="14.00">Check if Document revoked on</text>
<text text-anchor="middle" x="125" y="-108.8" font-family="Times,serif" font-size="14.00"> Document Store or OCSP</text>
</g>
<!-- DidSignedEndpoint&#45;&gt;DidSignedRevoked -->
<g id="edge4" class="edge">
<title>DidSignedEndpoint&#45;&gt;DidSignedRevoked</title>
<path fill="none" stroke="black" d="M125,-174.83C125,-167.13 125,-157.97 125,-149.42"/>
<polygon fill="black" stroke="black" points="128.5,-149.41 125,-139.41 121.5,-149.41 128.5,-149.41"/>
</g>
<!-- DNSDidRevoked -->
<g id="node6" class="node">
<title>DNSDidRevoked</title>
<polygon fill="none" stroke="black" points="233,-54 17,-54 17,-16 233,-16 233,-54"/>
<text text-anchor="middle" x="125" y="-38.8" font-family="Times,serif" font-size="14.00">Check DNS TXT is the same as</text>
<text text-anchor="middle" x="125" y="-23.8" font-family="Times,serif" font-size="14.00"> Smart Contract Address</text>
</g>
<!-- DidSignedRevoked&#45;&gt;DNSDidRevoked -->
<g id="edge5" class="edge">
<title>DidSignedRevoked&#45;&gt;DNSDidRevoked</title>
<path fill="none" stroke="black" d="M125,-100.99C125,-90.3 125,-76.5 125,-64.37"/>
<polygon fill="black" stroke="black" points="128.5,-64.26 125,-54.26 121.5,-64.26 128.5,-64.26"/>
</g>
</g>
</svg>
