<?xml version="1.0" encoding="UTF-8" standalone="no"?>
<!DOCTYPE svg PUBLIC "-//W3C//DTD SVG 1.1//EN"
 "http://www.w3.org/Graphics/SVG/1.1/DTD/svg11.dtd">
<!-- Generated by graphviz version 3.0.0 (20220226.1711)
 -->
<!-- Title: g Pages: 1 -->
<svg width="256pt" height="559pt"
 viewBox="0.00 0.00 256.00 559.00" xmlns="http://www.w3.org/2000/svg" xmlns:xlink="http://www.w3.org/1999/xlink">
<g id="graph0" class="graph" transform="scale(1 1) rotate(0) translate(4 555)">
<title>g</title>
<polygon fill="white" stroke="transparent" points="-4,4 -4,-555 252,-555 252,4 -4,4"/>
<g id="clust1" class="cluster">
<title>cluster_Hash_Check</title>
<g id="a_clust1"><a xlink:href="https://github.com/Open-Attestation/oa-verify/blob/master/src/verifiers/documentIntegrity/hash/openAttestationHash.ts#:~:text=const%20verify" xlink:title="openAttestationHash">
<polygon fill="none" stroke="black" points="8,-324 8,-543 240,-543 240,-324 8,-324"/>
<text text-anchor="middle" x="124" y="-527.8" font-family="Helvetica,Arial,sans-serif" font-size="14.00" fill="blue">openAttestationHash</text>
</a>
</g>
</g>
<g id="clust2" class="cluster">
<title>cluster_Token_Check</title>
<g id="a_clust2"><a xlink:href="https://github.com/Open-Attestation/oa-verify/blob/master/src/verifiers/documentStatus/tokenRegistry/ethereumTokenRegistryStatus.ts#:~:text=const%20verify" xlink:title="EthereumTokenRegistryStatus">
<polygon fill="none" stroke="black" points="8,-167 8,-316 240,-316 240,-167 8,-167"/>
<text text-anchor="middle" x="124" y="-300.8" font-family="Helvetica,Arial,sans-serif" font-size="14.00" fill="blue">EthereumTokenRegistryStatus</text>
</a>
</g>
</g>
<g id="clust3" class="cluster">
<title>cluster_DnsTxt_Check</title>
<g id="a_clust3"><a xlink:href="https://github.com/Open-Attestation/oa-verify/blob/master/src/verifiers/issuerIdentity/dnsTxt/openAttestationDnsTxt.ts#:~:text=const%20verify" xlink:title="DnsTxtIdentityProof">
<polygon fill="none" stroke="black" points="8,-8 8,-159 240,-159 240,-8 8,-8"/>
<text text-anchor="middle" x="124" y="-143.8" font-family="Helvetica,Arial,sans-serif" font-size="14.00" fill="blue">DnsTxtIdentityProof</text>
</a>
</g>
</g>
<!-- HashCheckStart -->
<g id="node1" class="node">
<title>HashCheckStart</title>
<polygon fill="none" stroke="black" points="232,-512 16,-512 16,-476 232,-476 232,-512"/>
<text text-anchor="middle" x="124" y="-490.3" font-family="Times,serif" font-size="14.00">Start</text>
</g>
<!-- HashCheckSchema -->
<g id="node2" class="node">
<title>HashCheckSchema</title>
<polygon fill="none" stroke="black" points="232,-440 16,-440 16,-404 232,-404 232,-440"/>
<text text-anchor="middle" x="124" y="-418.3" font-family="Times,serif" font-size="14.00">Check Document Schema</text>
</g>
<!-- HashCheckStart&#45;&gt;HashCheckSchema -->
<g id="edge1" class="edge">
<title>HashCheckStart&#45;&gt;HashCheckSchema</title>
<path fill="none" stroke="black" d="M124,-475.7C124,-467.98 124,-458.71 124,-450.11"/>
<polygon fill="black" stroke="black" points="127.5,-450.1 124,-440.1 120.5,-450.1 127.5,-450.1"/>
</g>
<!-- HashCheckSignature -->
<g id="node3" class="node">
<title>HashCheckSignature</title>
<polygon fill="none" stroke="black" points="232,-368 16,-368 16,-332 232,-332 232,-368"/>
<text text-anchor="middle" x="124" y="-346.3" font-family="Times,serif" font-size="14.00">Verify Signature</text>
</g>
<!-- HashCheckSchema&#45;&gt;HashCheckSignature -->
<g id="edge2" class="edge">
<title>HashCheckSchema&#45;&gt;HashCheckSignature</title>
<path fill="none" stroke="black" d="M124,-403.7C124,-395.98 124,-386.71 124,-378.11"/>
<polygon fill="black" stroke="black" points="127.5,-378.1 124,-368.1 120.5,-378.1 127.5,-378.1"/>
</g>
<!-- TokenCheckConnect -->
<g id="node4" class="node">
<title>TokenCheckConnect</title>
<polygon fill="none" stroke="black" points="232,-285 16,-285 16,-249 232,-249 232,-285"/>
<text text-anchor="middle" x="124" y="-263.3" font-family="Times,serif" font-size="14.00">Connect to Token Registry</text>
</g>
<!-- HashCheckSignature&#45;&gt;TokenCheckConnect -->
<g id="edge3" class="edge">
<title>HashCheckSignature&#45;&gt;TokenCheckConnect</title>
<path fill="none" stroke="black" d="M124,-331.82C124,-321.19 124,-307.31 124,-295.2"/>
<polygon fill="black" stroke="black" points="127.5,-295.15 124,-285.15 120.5,-295.15 127.5,-295.15"/>
</g>
<!-- TokenCheckMint -->
<g id="node5" class="node">
<title>TokenCheckMint</title>
<polygon fill="none" stroke="black" points="232,-213 16,-213 16,-175 232,-175 232,-213"/>
<text text-anchor="middle" x="124" y="-197.8" font-family="Times,serif" font-size="14.00">Check if Document Merkle Root</text>
<text text-anchor="middle" x="124" y="-182.8" font-family="Times,serif" font-size="14.00"> minted on Token Registry</text>
</g>
<!-- TokenCheckConnect&#45;&gt;TokenCheckMint -->
<g id="edge4" class="edge">
<title>TokenCheckConnect&#45;&gt;TokenCheckMint</title>
<path fill="none" stroke="black" d="M124,-248.81C124,-241.11 124,-231.82 124,-223.15"/>
<polygon fill="black" stroke="black" points="127.5,-223.02 124,-213.02 120.5,-223.02 127.5,-223.02"/>
</g>
<!-- DNSTxtIssuer -->
<g id="node6" class="node">
<title>DNSTxtIssuer</title>
<polygon fill="none" stroke="black" points="232,-128 16,-128 16,-90 232,-90 232,-128"/>
<text text-anchor="middle" x="124" y="-112.8" font-family="Times,serif" font-size="14.00">Ensure That Document issuer is </text>
<text text-anchor="middle" x="124" y="-97.8" font-family="Times,serif" font-size="14.00">DNSTxt</text>
</g>
<!-- TokenCheckMint&#45;&gt;DNSTxtIssuer -->
<g id="edge5" class="edge">
<title>TokenCheckMint&#45;&gt;DNSTxtIssuer</title>
<path fill="none" stroke="black" d="M124,-174.99C124,-164.3 124,-150.5 124,-138.37"/>
<polygon fill="black" stroke="black" points="127.5,-138.26 124,-128.26 120.5,-138.26 127.5,-138.26"/>
</g>
<!-- DNSTxtRevoked -->
<g id="node7" class="node">
<title>DNSTxtRevoked</title>
<polygon fill="none" stroke="black" points="232,-54 16,-54 16,-16 232,-16 232,-54"/>
<text text-anchor="middle" x="124" y="-38.8" font-family="Times,serif" font-size="14.00">Check DNS TXT is the same </text>
<text text-anchor="middle" x="124" y="-23.8" font-family="Times,serif" font-size="14.00">as Smart Contract Address</text>
</g>
<!-- DNSTxtIssuer&#45;&gt;DNSTxtRevoked -->
<g id="edge6" class="edge">
<title>DNSTxtIssuer&#45;&gt;DNSTxtRevoked</title>
<path fill="none" stroke="black" d="M124,-89.83C124,-82.13 124,-72.97 124,-64.42"/>
<polygon fill="black" stroke="black" points="127.5,-64.41 124,-54.41 120.5,-64.41 127.5,-64.41"/>
</g>
</g>
</svg>
