<?xml version="1.0" encoding="UTF-8" standalone="no"?>
<!DOCTYPE svg PUBLIC "-//W3C//DTD SVG 1.1//EN"
 "http://www.w3.org/Graphics/SVG/1.1/DTD/svg11.dtd">
<!-- Generated by graphviz version 3.0.0 (20220226.1711)
 -->
<!-- Title: g Pages: 1 -->
<svg width="280pt" height="559pt"
 viewBox="0.00 0.00 280.00 559.00" xmlns="http://www.w3.org/2000/svg" xmlns:xlink="http://www.w3.org/1999/xlink">
<g id="page0,1_graph0" class="graph" transform="scale(1 1) rotate(0) translate(4 555)">
<title>g</title>
<polygon fill="white" stroke="transparent" points="-4,4 -4,-555 276,-555 276,4 -4,4"/>
<g id="clust2" class="cluster">
<title>cluster_DocumentStore_Check</title>
<g id="a_clust2"><a xlink:href="https://github.com/Open-Attestation/oa-verify/blob/master/src/verifiers/documentStatus/documentStore/ethereumDocumentStoreStatus.ts#:~:text=const%20verify" xlink:title="EthereumDocumentStoreStatus">
<polygon fill="none" stroke="black" points="8,-93 8,-388 264,-388 264,-93 8,-93"/>
<text text-anchor="middle" x="136" y="-372.8" font-family="Helvetica,Arial,sans-serif" font-size="14.00" fill="blue">EthereumDocumentStoreStatus</text>
</a>
</g>
</g>
<g id="clust1" class="cluster">
<title>cluster_Hash_Check</title>
<g id="a_clust1"><a xlink:href="https://github.com/Open-Attestation/oa-verify/blob/master/src/verifiers/documentStatus/tokenRegistry/ethereumTokenRegistryStatus.ts#:~:text=const%20verify" xlink:title="openAttestationHash">
<polygon fill="none" stroke="black" points="20,-396 20,-543 252,-543 252,-396 20,-396"/>
<text text-anchor="middle" x="136" y="-527.8" font-family="Helvetica,Arial,sans-serif" font-size="14.00" fill="blue">openAttestationHash</text>
</a>
</g>
</g>
<g id="clust3" class="cluster">
<title>cluster_DnsTxt_Check</title>
<g id="a_clust3"><a xlink:href="https://github.com/Open-Attestation/oa-verify/blob/master/src/verifiers/issuerIdentity/dnsTxt/openAttestationDnsTxt.ts#:~:text=const%20verify" xlink:title="DnsTxtIdentityProof">
<polygon fill="none" stroke="black" points="20,-8 20,-85 252,-85 252,-8 20,-8"/>
<text text-anchor="middle" x="136" y="-69.8" font-family="Helvetica,Arial,sans-serif" font-size="14.00" fill="blue">DnsTxtIdentityProof</text>
</a>
</g>
</g>
<!-- HashCheckStart -->
<g id="node1" class="node">
<title>HashCheckStart</title>
<polygon fill="none" stroke="black" points="244,-512 28,-512 28,-476 244,-476 244,-512"/>
<text text-anchor="middle" x="136" y="-490.3" font-family="Times,serif" font-size="14.00">Start</text>
</g>
<!-- HashCheckSchema -->
<g id="node2" class="node">
<title>HashCheckSchema</title>
<polygon fill="none" stroke="black" points="244,-440 28,-440 28,-404 244,-404 244,-440"/>
<text text-anchor="middle" x="136" y="-418.3" font-family="Times,serif" font-size="14.00">Check Document Schema</text>
</g>
<!-- HashCheckStart&#45;&gt;HashCheckSchema -->
<g id="edge1" class="edge">
<title>HashCheckStart&#45;&gt;HashCheckSchema</title>
<path fill="none" stroke="black" d="M136,-475.7C136,-467.98 136,-458.71 136,-450.11"/>
<polygon fill="black" stroke="black" points="139.5,-450.1 136,-440.1 132.5,-450.1 139.5,-450.1"/>
</g>
<!-- HashCheckSignature -->
<g id="node3" class="node">
<title>HashCheckSignature</title>
<polygon fill="none" stroke="black" points="244,-357 28,-357 28,-321 244,-321 244,-357"/>
<text text-anchor="middle" x="136" y="-335.3" font-family="Times,serif" font-size="14.00">Verify Signature</text>
</g>
<!-- HashCheckSchema&#45;&gt;HashCheckSignature -->
<g id="edge2" class="edge">
<title>HashCheckSchema&#45;&gt;HashCheckSignature</title>
<path fill="none" stroke="black" d="M136,-403.82C136,-393.19 136,-379.31 136,-367.2"/>
<polygon fill="black" stroke="black" points="139.5,-367.15 136,-357.15 132.5,-367.15 139.5,-367.15"/>
</g>
<!-- DocumentStoreConnect -->
<g id="node4" class="node">
<title>DocumentStoreConnect</title>
<polygon fill="none" stroke="black" points="244,-285 28,-285 28,-249 244,-249 244,-285"/>
<text text-anchor="middle" x="136" y="-263.3" font-family="Times,serif" font-size="14.00">Connect to Document Stores</text>
</g>
<!-- HashCheckSignature&#45;&gt;DocumentStoreConnect -->
<g id="edge3" class="edge">
<title>HashCheckSignature&#45;&gt;DocumentStoreConnect</title>
<path fill="none" stroke="black" d="M136,-320.7C136,-312.98 136,-303.71 136,-295.11"/>
<polygon fill="black" stroke="black" points="139.5,-295.1 136,-285.1 132.5,-295.1 139.5,-295.1"/>
</g>
<!-- DocumentStoreMint -->
<g id="node5" class="node">
<title>DocumentStoreMint</title>
<polygon fill="none" stroke="black" points="244,-213 28,-213 28,-175 244,-175 244,-213"/>
<text text-anchor="middle" x="136" y="-197.8" font-family="Times,serif" font-size="14.00">Check if Document Merkle Root on</text>
<text text-anchor="middle" x="136" y="-182.8" font-family="Times,serif" font-size="14.00"> Document Store</text>
</g>
<!-- DocumentStoreConnect&#45;&gt;DocumentStoreMint -->
<g id="edge4" class="edge">
<title>DocumentStoreConnect&#45;&gt;DocumentStoreMint</title>
<path fill="none" stroke="black" d="M136,-248.81C136,-241.11 136,-231.82 136,-223.15"/>
<polygon fill="black" stroke="black" points="139.5,-223.02 136,-213.02 132.5,-223.02 139.5,-223.02"/>
</g>
<!-- DocumentStoreRevoked -->
<g id="node6" class="node">
<title>DocumentStoreRevoked</title>
<polygon fill="none" stroke="black" points="256,-139 16,-139 16,-101 256,-101 256,-139"/>
<text text-anchor="middle" x="136" y="-123.8" font-family="Times,serif" font-size="14.00">Check if Document Merkle Root has not</text>
<text text-anchor="middle" x="136" y="-108.8" font-family="Times,serif" font-size="14.00"> been Revoked on Document Store</text>
</g>
<!-- DocumentStoreMint&#45;&gt;DocumentStoreRevoked -->
<g id="edge5" class="edge">
<title>DocumentStoreMint&#45;&gt;DocumentStoreRevoked</title>
<path fill="none" stroke="black" d="M136,-174.83C136,-167.13 136,-157.97 136,-149.42"/>
<polygon fill="black" stroke="black" points="139.5,-149.41 136,-139.41 132.5,-149.41 139.5,-149.41"/>
</g>
<!-- DNSTxtRevoked -->
<g id="node7" class="node">
<title>DNSTxtRevoked</title>
<polygon fill="none" stroke="black" points="244,-54 28,-54 28,-16 244,-16 244,-54"/>
<text text-anchor="middle" x="136" y="-38.8" font-family="Times,serif" font-size="14.00">Check DNS TXT is the same </text>
<text text-anchor="middle" x="136" y="-23.8" font-family="Times,serif" font-size="14.00">as Smart Contract Address</text>
</g>
<!-- DocumentStoreRevoked&#45;&gt;DNSTxtRevoked -->
<g id="edge6" class="edge">
<title>DocumentStoreRevoked&#45;&gt;DNSTxtRevoked</title>
<path fill="none" stroke="black" d="M136,-100.99C136,-90.3 136,-76.5 136,-64.37"/>
<polygon fill="black" stroke="black" points="139.5,-64.26 136,-54.26 132.5,-64.26 139.5,-64.26"/>
</g>
</g>
</svg>
