<svg width="172" height="48" viewBox="0 0 172 48" fill="none" xmlns="http://www.w3.org/2000/svg">
<path d="M164.792 48H6.33867C2.786 48 0 45.3625 0 41.9992V6.00081C0 2.6375 2.786 0 6.33867 0H164.792C168.344 0 171.13 2.6375 171.13 6.00081V42.0057C171.13 45.3625 168.344 48 164.792 48Z" fill="black"/>
<path d="M164.792 0.958963C167.708 0.958963 170.117 3.23974 170.117 6V42C170.117 44.7603 167.708 47.041 164.792 47.041H6.33867C3.42261 47.041 1.01309 44.7603 1.01309 42V6C1.01309 3.23974 3.42261 0.958963 6.33867 0.958963H164.792ZM164.792 0H6.33867C2.786 0 0 2.76026 0 6V42C0 45.3629 2.786 48 6.33867 48H164.792C168.344 48 171.13 45.3629 171.13 42V6C171.13 2.76026 168.344 0 164.792 0Z" fill="#A6A6A6"/>
<path d="M60.0751 12.478C60.0751 13.4487 59.8204 14.3013 59.1802 14.9047C58.4161 15.6327 57.5212 16 56.3785 16C55.229 16 54.341 15.6327 53.5769 14.9047C52.8128 14.1767 52.4273 13.324 52.4273 12.2353C52.4273 11.1465 52.8128 10.2939 53.5769 9.56589C54.341 8.83788 55.2358 8.47059 56.3785 8.47059C56.8879 8.47059 57.3973 8.5952 57.9067 8.83788C58.4161 9.08055 58.8016 9.32322 59.0563 9.69051L58.4161 10.3005C57.9067 9.69051 57.2665 9.44784 56.3785 9.44784C55.6144 9.44784 54.8504 9.69051 54.341 10.3005C53.7008 10.7858 53.4461 11.5138 53.4461 12.3665C53.4461 13.2191 53.7008 13.9471 54.341 14.4325C54.9811 14.9178 55.6144 15.2851 56.3785 15.2851C57.2734 15.2851 57.9067 15.0424 58.5469 14.4325C58.9324 14.0652 59.1871 13.5798 59.1871 12.9764H56.3854V12.0057H60.082L60.0751 12.478ZM65.9401 9.44128H62.4982V11.7499H65.6854V12.6026H62.4982V14.9113H65.9401V15.8819H61.4794V8.58865H65.9401V9.44128ZM70.146 15.8754H69.1272V9.44128H66.9588V8.58865H72.3144V9.44128H70.146V15.8754ZM76.011 15.8754V8.58865H77.0298V15.8754H76.011ZM81.3596 15.8754H80.3408V9.44128H78.1725V8.58865H83.3972V9.44128H81.2288V15.8754H81.3596ZM93.475 14.9047C92.7109 15.6327 91.816 16 90.6733 16C89.5238 16 88.6357 15.6327 87.8717 14.9047C87.1076 14.1767 86.7221 13.324 86.7221 12.2353C86.7221 11.1465 87.1076 10.2939 87.8717 9.56589C88.6357 8.83788 89.5306 8.47059 90.6733 8.47059C91.816 8.47059 92.7109 8.83788 93.475 9.56589C94.2391 10.2939 94.6246 11.1465 94.6246 12.2353C94.6246 13.324 94.2391 14.1767 93.475 14.9047ZM88.6289 14.3013C89.1383 14.7866 89.9024 15.1539 90.6664 15.1539C91.4305 15.1539 92.1946 14.9113 92.704 14.3013C93.2134 13.8159 93.5989 13.0879 93.5989 12.2353C93.5989 11.3827 93.3442 10.6546 92.704 10.1693C92.1946 9.68395 91.4305 9.31666 90.6664 9.31666C89.9024 9.31666 89.1383 9.55934 88.6289 10.1693C88.1195 10.6546 87.734 11.3827 87.734 12.2353C87.734 13.0814 87.9887 13.8159 88.6289 14.3013ZM96.022 15.8754V8.58865H97.1716L100.868 14.2947V8.58865H101.887V15.8754H100.868L96.9169 9.92662V15.8754H96.022Z" fill="white" stroke="white" stroke-width="0.2" stroke-miterlimit="10"/>
<path d="M86.5197 26.1996C83.4917 26.1996 81.0911 28.3024 81.0911 31.226C81.0911 34.0297 83.4917 36.2524 86.5197 36.2524C89.5477 36.2524 91.9483 34.1497 91.9483 31.226C91.9483 28.1887 89.5545 26.1996 86.5197 26.1996ZM86.5197 34.1497C84.8761 34.1497 83.4917 32.8615 83.4917 31.1124C83.4917 29.3632 84.8829 28.075 86.5197 28.075C88.1564 28.075 89.5477 29.2432 89.5477 31.1124C89.5545 32.8678 88.1633 34.1497 86.5197 34.1497ZM74.7759 26.1996C71.7479 26.1996 69.3473 28.3024 69.3473 31.226C69.3473 34.0297 71.7479 36.2524 74.7759 36.2524C77.8039 36.2524 80.2045 34.1497 80.2045 31.226C80.2045 28.1887 77.8039 26.1996 74.7759 26.1996ZM74.7759 34.1497C73.1323 34.1497 71.7479 32.8615 71.7479 31.1124C71.7479 29.3632 73.1391 28.075 74.7759 28.075C76.4195 28.075 77.8039 29.2432 77.8039 31.1124C77.8039 32.8678 76.4195 34.1497 74.7759 34.1497ZM60.7543 27.7214V29.8242H66.1897C66.0601 30.9924 65.5555 31.9269 64.9281 32.5142C64.171 33.2151 62.9094 34.036 60.7611 34.036C57.3512 34.036 54.8279 31.5796 54.8279 28.4223C54.8279 25.265 57.4808 22.8086 60.7611 22.8086C62.5275 22.8086 63.9187 23.5096 64.9281 24.3305L66.5716 22.8086C65.1804 21.6404 63.414 20.7059 60.8907 20.7059C56.3419 20.7059 52.4273 24.2168 52.4273 28.4223C52.4273 32.6279 56.3419 36.1388 60.8907 36.1388C63.414 36.1388 65.1872 35.4379 66.7012 33.916C68.2152 32.5142 68.7199 30.5251 68.7199 29.0033C68.7199 28.536 68.7199 28.0687 68.5903 27.7151L60.7543 27.7214ZM118.096 29.3569C117.591 28.1887 116.329 26.1996 113.547 26.1996C110.771 26.1996 108.493 28.1887 108.493 31.226C108.493 34.0297 110.764 36.2524 113.799 36.2524C116.2 36.2524 117.714 34.8506 118.218 34.0297L116.452 32.8615C115.818 33.6824 115.061 34.2633 113.799 34.2633C112.537 34.2633 111.78 33.7961 111.146 32.7415L118.348 29.9378L118.096 29.3569ZM110.771 30.9924C110.771 29.1233 112.415 28.0687 113.547 28.0687C114.433 28.0687 115.313 28.536 115.565 29.1233L110.771 30.9924ZM104.831 35.7915H107.232V21.1732H104.831V35.7915ZM101.046 27.2541C100.412 26.6669 99.4024 26.0859 98.1407 26.0859C95.4878 26.0859 92.9644 28.3087 92.9644 31.1124C92.9644 33.916 95.365 36.0251 98.1407 36.0251C99.4024 36.0251 100.412 35.4379 100.916 34.8569H101.046V35.5578C101.046 37.427 99.907 38.4815 98.1407 38.4815C96.7494 38.4815 95.7401 37.5469 95.4878 36.726L93.4691 37.5469C94.1033 38.8351 95.6174 40.4706 98.2703 40.4706C101.046 40.4706 103.324 38.9488 103.324 35.3242V26.4332H101.053L101.046 27.2541ZM98.2635 34.1497C96.6199 34.1497 95.2354 32.8615 95.2354 31.1124C95.2354 29.3632 96.6267 28.075 98.2635 28.075C99.9002 28.075 101.169 29.3632 101.169 31.1124C101.169 32.8615 99.907 34.1497 98.2635 34.1497ZM129.082 21.1732H123.401V35.7915H125.802V30.2978H129.082C131.735 30.2978 134.259 28.5423 134.259 25.7386C134.259 22.9349 131.735 21.1732 129.082 21.1732ZM129.205 28.1887H125.795V23.1623H129.205C130.971 23.1623 131.981 24.5641 131.981 25.6186C131.858 26.9005 130.849 28.1887 129.205 28.1887ZM143.731 26.0859C141.965 26.0859 140.192 26.7868 139.564 28.3087L141.713 29.1296C142.217 28.3087 142.974 28.075 143.861 28.075C145.123 28.075 146.262 28.7759 146.384 29.9442V30.0641C146.002 29.8305 144.993 29.4769 143.984 29.4769C141.713 29.4769 139.435 30.6451 139.435 32.7541C139.435 34.7432 141.331 36.0314 143.349 36.0314C144.993 36.0314 145.75 35.3305 146.377 34.6296H146.507V35.7978H148.778V30.1841C148.533 27.6014 146.384 26.0859 143.731 26.0859ZM143.479 34.1497C142.722 34.1497 141.583 33.7961 141.583 32.8615C141.583 31.6933 142.974 31.3397 144.106 31.3397C145.116 31.3397 145.62 31.5733 146.255 31.807C146.002 33.2151 144.741 34.1497 143.479 34.1497ZM156.737 26.4332L154.084 32.7478H153.954L151.179 26.4332H148.655L152.822 35.3179L150.422 40.2306H152.822L159.26 26.4332H156.737ZM135.52 35.7915H137.921V21.1732H135.52V35.7915Z" fill="white"/>
<path d="M13.1839 9.02808C12.8005 9.39206 12.6773 9.99003 12.6773 10.7115V37.3147C12.6773 38.0361 12.9306 38.6406 13.3139 38.9981L13.444 39.1216L29.1606 24.1983V23.9578L13.1839 9.02808Z" fill="url(#paint0_linear)"/>
<path d="M34.2258 29.2485L29.0303 24.3153V23.9513L34.2258 19.0181L34.3559 19.1416L40.5645 22.5149C42.3374 23.4768 42.3374 25.0433 40.5645 26.0052L34.2258 29.2485Z" fill="url(#paint1_linear)"/>
<path d="M34.3563 29.125L29.0307 24.0683L13.184 39.1215C13.8206 39.726 14.7037 39.726 15.8468 39.245L34.3563 29.125Z" fill="url(#paint2_linear)"/>
<path d="M34.3563 19.018L15.8468 9.02805C14.7037 8.42358 13.8206 8.54707 13.184 9.15154L29.0307 24.0748L34.3563 19.018Z" fill="url(#paint3_linear)"/>
<path opacity="0.2" d="M34.2262 29.0081L15.8468 38.8746C14.8337 39.479 13.9438 39.3555 13.3141 38.8746L13.184 38.9981L13.3141 39.1215C13.9507 39.6025 14.8337 39.726 15.8468 39.1215L34.2262 29.0081Z" fill="black"/>
<path opacity="0.12" d="M13.1839 38.8746C12.8005 38.5106 12.6773 37.9126 12.6773 37.1911V37.3146C12.6773 38.0361 12.9306 38.6406 13.3139 38.9981V38.8746H13.1839ZM40.5647 25.6347L34.226 29.0081L34.3561 29.1315L40.5647 25.7582C41.4546 25.2772 41.8311 24.6728 41.8311 24.0748C41.8311 24.6728 41.3245 25.1537 40.5647 25.6347Z" fill="black"/>
<path opacity="0.25" d="M15.8469 9.14505L40.5649 22.5084C41.3248 22.9893 41.8313 23.4703 41.8313 24.0748C41.8313 23.4703 41.448 22.8724 40.5649 22.3914L15.8469 9.02805C14.0739 8.0661 12.6775 8.78757 12.6775 10.7115V10.835C12.6775 9.02805 14.0739 8.1831 15.8469 9.14505Z" fill="white"/>
<defs>
<linearGradient id="paint0_linear" x1="27.6282" y1="10.4771" x2="7.45445" y2="31.7221" gradientUnits="userSpaceOnUse">
<stop stop-color="#00A0FF"/>
<stop offset="0.007" stop-color="#00A1FF"/>
<stop offset="0.26" stop-color="#00BEFF"/>
<stop offset="0.512" stop-color="#00D2FF"/>
<stop offset="0.76" stop-color="#00DFFF"/>
<stop offset="1" stop-color="#00E3FF"/>
</linearGradient>
<linearGradient id="paint1_linear" x1="42.8886" y1="24.1321" x2="12.2157" y2="24.1321" gradientUnits="userSpaceOnUse">
<stop stop-color="#FFE000"/>
<stop offset="0.409" stop-color="#FFBD00"/>
<stop offset="0.775" stop-color="#FFA500"/>
<stop offset="1" stop-color="#FF9C00"/>
</linearGradient>
<linearGradient id="paint2_linear" x1="31.4568" y1="26.8215" x2="4.10106" y2="55.6316" gradientUnits="userSpaceOnUse">
<stop stop-color="#FF3A44"/>
<stop offset="1" stop-color="#C31162"/>
</linearGradient>
<linearGradient id="paint3_linear" x1="9.20483" y1="0.253608" x2="21.4211" y2="13.1193" gradientUnits="userSpaceOnUse">
<stop stop-color="#32A071"/>
<stop offset="0.069" stop-color="#2DA771"/>
<stop offset="0.476" stop-color="#15CF74"/>
<stop offset="0.801" stop-color="#06E775"/>
<stop offset="1" stop-color="#00F076"/>
</linearGradient>
</defs>
</svg>
