<svg width="158" height="48" viewBox="0 0 158 48" fill="none" xmlns="http://www.w3.org/2000/svg">
<path d="M156.661 42.324C156.661 44.8639 154.667 46.9114 152.193 46.9114H5.55267C3.07921 46.9114 1.06006 44.8639 1.06006 42.324V5.67601C1.06006 3.13606 3.07921 1.06262 5.55267 1.06262H152.193C154.667 1.06262 156.686 3.11014 156.686 5.67601L156.661 42.324Z" fill="white"/>
<path d="M152.168 48H5.52742C2.47346 48 0 45.46 0 42.324V5.67603C0 2.53996 2.47346 0 5.52742 0H152.168C155.222 0 157.696 2.53996 157.696 5.67603V42.324C157.696 45.46 155.222 48 152.168 48Z" fill="#A6A6A6"/>
<path d="M156.661 42.324C156.661 44.8639 154.667 46.9114 152.193 46.9114H5.55267C3.07921 46.9114 1.06006 44.8639 1.06006 42.324V5.67601C1.06006 3.13606 3.07921 1.06262 5.55267 1.06262H152.193C154.667 1.06262 156.686 3.11014 156.686 5.67601L156.661 42.324Z" fill="black"/>
<path d="M35.2089 23.7408C35.1836 19.879 38.2881 17.987 38.4395 17.9093C36.6728 15.2657 33.9469 14.9028 32.9626 14.8769C30.6658 14.6177 28.4447 16.3024 27.2585 16.3024C26.0722 16.3024 24.255 14.9028 22.3116 14.9546C19.8129 15.0065 17.4656 16.4838 16.1784 18.7905C13.5283 23.5076 15.4969 30.4276 18.0461 34.2117C19.3081 36.0777 20.7972 38.1512 22.7406 38.0734C24.6336 37.9957 25.3403 36.8294 27.6371 36.8294C29.9086 36.8294 30.5648 38.0734 32.5587 38.0216C34.6031 37.9957 35.8903 36.1555 37.1018 34.2635C38.5657 32.1382 39.1462 30.013 39.1715 29.9093C39.1715 29.9093 35.2594 28.3801 35.2089 23.7408ZM31.4735 12.3628C32.483 11.041 33.1897 9.27861 32.9878 7.46436C31.4987 7.54211 29.6562 8.52699 28.5962 9.79697C27.6623 10.9374 26.8042 12.7775 27.0313 14.514C28.6971 14.6436 30.4134 13.6587 31.4735 12.3628Z" fill="white"/>
<path d="M152.168 0H73.623L104.39 48H152.168C155.222 48 157.695 45.46 157.695 42.324V5.67603C157.695 2.53996 155.222 0 152.168 0Z" fill="url(#paint0_linear)"/>
<path d="M62.72 37.8142H60.0699L58.606 33.1231H53.5581L52.1699 37.8142H49.5955L54.5929 21.8488H57.6974L62.72 37.8142ZM58.1769 31.1533L56.8645 26.9805C56.713 26.5659 56.4606 25.5551 56.082 23.9741H56.0316C55.8801 24.6479 55.6277 25.6587 55.2996 26.9805L54.0124 31.1533H58.1769ZM75.5668 31.905C75.5668 33.8747 75.0368 35.4039 74.002 36.5443C73.0681 37.5551 71.9324 38.0734 70.5442 38.0734C69.0551 38.0734 67.995 37.5291 67.3388 36.4406V42.4795H64.8653V30.0648C64.8653 28.8466 64.8401 27.5767 64.7644 26.2808H66.9602L67.1116 28.095H67.1621C67.995 26.7214 69.257 26.0216 70.948 26.0216C72.2605 26.0216 73.371 26.5659 74.2544 27.6285C75.1378 28.743 75.5668 30.1685 75.5668 31.905ZM73.0429 32.0086C73.0429 30.8942 72.7905 29.9611 72.3109 29.2354C71.7809 28.4838 71.049 28.095 70.1404 28.095C69.5346 28.095 68.9793 28.3024 68.4746 28.7171C67.9698 29.1317 67.6417 29.676 67.4902 30.3758C67.4145 30.635 67.3893 30.8942 67.364 31.1533V33.0713C67.364 33.9006 67.6164 34.6263 68.1212 35.1965C68.626 35.7667 69.2822 36.0518 70.0646 36.0518C70.9985 36.0518 71.7304 35.689 72.2605 34.9374C72.7905 34.2117 73.0429 33.2268 73.0429 32.0086ZM88.4894 31.905C88.4894 33.8747 87.9594 35.4039 86.9245 36.5443C85.9907 37.5551 84.8549 38.0734 83.4668 38.0734C81.9776 38.0734 80.9176 37.5291 80.2613 36.4406V42.4795H77.7627V30.0648C77.7627 28.8466 77.7374 27.5767 77.6617 26.2808H79.8575L80.009 28.095H80.0594C80.8923 26.7214 82.1543 26.0216 83.8453 26.0216C85.1578 26.0216 86.2683 26.5659 87.1517 27.6285C88.0351 28.743 88.4894 30.1685 88.4894 31.905ZM85.9402 32.0086C85.9402 30.8942 85.6878 29.9611 85.2083 29.2354C84.6782 28.4838 83.9463 28.095 83.0377 28.095C82.4319 28.095 81.8767 28.3024 81.3719 28.7171C80.8671 29.1317 80.539 29.676 80.3875 30.3758C80.3118 30.6868 80.2613 30.946 80.2613 31.1533V33.0713C80.2613 33.9006 80.5137 34.6263 81.0185 35.1965C81.5233 35.7667 82.1795 36.0518 82.962 36.0518C83.8958 36.0518 84.6278 35.689 85.1578 34.9374C85.6878 34.2117 85.9402 33.2268 85.9402 32.0086ZM102.901 33.3304C102.901 34.6782 102.447 35.7926 101.513 36.6479C100.503 37.581 99.0899 38.0475 97.2727 38.0475C95.6069 38.0475 94.2692 37.7106 93.2344 37.0626L93.8149 34.9374C94.9002 35.6112 96.1117 35.9222 97.4241 35.9222C98.358 35.9222 99.0899 35.7149 99.6199 35.2743C100.15 34.8337 100.402 34.2635 100.402 33.5378C100.402 32.8898 100.175 32.3456 99.7461 31.905C99.3171 31.4644 98.6104 31.0497 97.6008 30.6609C94.8749 29.6242 93.512 28.095 93.512 26.0734C93.512 24.7516 93.9916 23.689 94.9507 22.8596C95.9098 22.0302 97.197 21.6155 98.7618 21.6155C100.175 21.6155 101.361 21.8747 102.295 22.3672L101.664 24.4406C100.781 23.9482 99.7966 23.7149 98.6861 23.7149C97.8027 23.7149 97.1212 23.9482 96.6165 24.3888C96.2126 24.7775 95.9855 25.27 95.9855 25.8402C95.9855 26.4622 96.2126 27.0065 96.6922 27.3952C97.096 27.784 97.8532 28.1728 98.9637 28.6393C100.301 29.1836 101.286 29.8315 101.917 30.5831C102.598 31.3088 102.901 32.216 102.901 33.3304ZM111.154 28.2246H108.403V33.8229C108.403 35.2484 108.883 35.9482 109.867 35.9482C110.321 35.9482 110.675 35.9222 110.978 35.8186L111.053 37.7624C110.574 37.9438 109.918 38.0475 109.11 38.0475C108.126 38.0475 107.368 37.7365 106.813 37.1145C106.258 36.4924 105.98 35.4557 105.98 34.0043V28.1987H104.34V26.2808H105.98V24.1814L108.428 23.4298V26.3067H111.18L111.154 28.2246ZM123.522 31.9568C123.522 33.7192 123.017 35.1706 122.032 36.311C120.998 37.4773 119.635 38.0734 117.918 38.0734C116.278 38.0734 114.965 37.5032 113.981 36.3888C112.997 35.2743 112.517 33.8488 112.517 32.1382C112.517 30.3499 113.022 28.8985 114.032 27.7581C115.041 26.6177 116.404 26.0475 118.095 26.0475C119.736 26.0475 121.073 26.6177 122.058 27.7322C123.042 28.8207 123.522 30.2462 123.522 31.9568ZM120.947 32.0086C120.947 30.946 120.72 30.0389 120.291 29.2872C119.761 28.3801 119.029 27.9136 118.045 27.9136C117.035 27.9136 116.278 28.3801 115.748 29.2872C115.294 30.0389 115.092 30.9719 115.092 32.0605C115.092 33.1231 115.319 34.0302 115.748 34.7818C116.278 35.689 117.035 36.1555 118.019 36.1555C118.979 36.1555 119.71 35.689 120.266 34.7559C120.72 33.9784 120.947 33.0713 120.947 32.0086ZM131.623 28.5356C131.371 28.4838 131.093 28.4579 130.841 28.4579C129.958 28.4579 129.276 28.7948 128.822 29.4687C128.418 30.0648 128.191 30.8164 128.191 31.7494V37.7883H125.692V29.9093C125.692 28.6911 125.667 27.4989 125.616 26.2808H127.787L127.888 28.4838H127.964C128.216 27.7322 128.645 27.1101 129.2 26.6695C129.731 26.2808 130.361 26.0475 130.992 26.0475C131.22 26.0475 131.422 26.0734 131.623 26.0993V28.5356ZM142.779 31.5162C142.779 31.905 142.754 32.2937 142.678 32.6825H135.207C135.233 33.8229 135.586 34.7041 136.293 35.3002C136.924 35.8445 137.731 36.1037 138.741 36.1037C139.851 36.1037 140.861 35.9222 141.77 35.5594L142.148 37.3218C141.088 37.7883 139.826 38.0216 138.388 38.0216C136.646 38.0216 135.283 37.5032 134.299 36.4406C133.314 35.378 132.81 33.9784 132.81 32.216C132.81 30.4795 133.264 29.0281 134.198 27.8877C135.157 26.6436 136.469 26.0475 138.11 26.0475C139.725 26.0475 140.962 26.6695 141.77 27.8877C142.451 28.8726 142.779 30.0648 142.779 31.5162ZM140.407 30.8423C140.432 30.0907 140.255 29.4168 139.927 28.8726C139.498 28.1469 138.842 27.8099 137.933 27.8099C137.126 27.8099 136.444 28.1469 135.939 28.8466C135.536 29.3909 135.283 30.0648 135.207 30.8423H140.407Z" fill="white"/>
<path d="M52.8514 16.1987C52.1699 16.1987 51.5642 16.1728 51.0594 16.095V8.37151C51.7661 8.26784 52.4728 8.216 53.1795 8.216C56.0315 8.216 57.344 9.6674 57.344 12.0259C57.344 14.7214 55.7791 16.1987 52.8514 16.1987ZM53.2552 9.20088C52.8766 9.20088 52.5485 9.2268 52.2709 9.27864V15.1361C52.4223 15.162 52.6999 15.162 53.1038 15.162C54.9715 15.162 56.0315 14.0735 56.0315 12.0259C56.0315 10.2117 55.0724 9.20088 53.2552 9.20088ZM61.4328 16.2506C59.8174 16.2506 58.7826 15.0065 58.7826 13.3478C58.7826 11.6112 59.8427 10.3672 61.5337 10.3672C63.1238 10.3672 64.1839 11.5335 64.1839 13.27C64.1839 15.0065 63.0733 16.2506 61.4328 16.2506ZM61.4832 11.2743C60.5999 11.2743 60.0194 12.1296 60.0194 13.3218C60.0194 14.4881 60.5999 15.3434 61.458 15.3434C62.3161 15.3434 62.8966 14.4363 62.8966 13.2959C62.9219 12.1296 62.3414 11.2743 61.4832 11.2743ZM73.371 10.4709L71.6547 16.121H70.5189L69.8122 13.6588C69.6356 13.0627 69.4841 12.4406 69.3579 11.8186H69.3327C69.2317 12.4406 69.0803 13.0627 68.8784 13.6588L68.1212 16.121H66.9854L65.3701 10.4709H66.6321L67.2631 13.1663C67.4145 13.8143 67.5407 14.4104 67.6416 14.9806H67.6669C67.7678 14.5141 67.894 13.9179 68.1212 13.1663L68.9036 10.4709H69.9132L70.6704 13.1145C70.847 13.7624 70.9985 14.3845 71.1247 14.9806H71.1499C71.2256 14.4104 71.3518 13.7884 71.5285 13.1145L72.21 10.4709H73.371ZM79.7061 16.121H78.4946V12.8812C78.4946 11.8704 78.116 11.378 77.384 11.378C76.6521 11.378 76.1473 12.0259 76.1473 12.7516V16.121H74.9106V12.0778C74.9106 11.5853 74.9106 11.0411 74.8601 10.4709H75.9454L75.9959 11.3521H76.0211C76.3492 10.756 77.0307 10.3672 77.7626 10.3672C78.9236 10.3672 79.6808 11.2743 79.6808 12.7516L79.7061 16.121ZM83.0881 16.121H81.8514V7.85315H83.0881V16.121ZM87.5555 16.2506C85.9402 16.2506 84.9054 15.0065 84.9054 13.3478C84.9054 11.6112 85.9654 10.3672 87.6565 10.3672C89.2465 10.3672 90.3066 11.5335 90.3066 13.27C90.3066 15.0065 89.1961 16.2506 87.5555 16.2506ZM87.606 11.2743C86.7226 11.2743 86.1421 12.1296 86.1421 13.3218C86.1421 14.4881 86.7226 15.3434 87.5808 15.3434C88.4389 15.3434 89.0194 14.4363 89.0194 13.2959C89.0194 12.1296 88.4641 11.2743 87.606 11.2743ZM95.1273 16.121L95.0264 15.473H95.0011C94.6225 15.9914 94.0925 16.2506 93.3858 16.2506C92.4015 16.2506 91.6948 15.5508 91.6948 14.5918C91.6948 13.1922 92.881 12.4665 94.9254 12.4665V12.3629C94.9254 11.6112 94.5468 11.2484 93.7896 11.2484C93.2344 11.2484 92.7801 11.378 92.351 11.6631L92.0986 10.8337C92.6034 10.4968 93.2344 10.3413 93.9915 10.3413C95.4302 10.3413 96.1621 11.1188 96.1621 12.6739V14.7473C96.1621 15.3175 96.1874 15.7581 96.2378 16.095L95.1273 16.121ZM94.9506 13.2959C93.5877 13.2959 92.9063 13.6328 92.9063 14.4363C92.9063 15.0324 93.2596 15.3175 93.7392 15.3175C94.3701 15.3175 94.9506 14.8251 94.9506 14.1771V13.2959ZM102.093 16.121L102.043 15.2138H102.018C101.664 15.8877 101.084 16.2506 100.251 16.2506C98.9132 16.2506 97.9289 15.0583 97.9289 13.3737C97.9289 11.6112 98.9385 10.3672 100.352 10.3672C101.084 10.3672 101.614 10.6264 101.917 11.1447H101.942V7.85315H103.179V14.5918C103.179 15.1361 103.204 15.6544 103.229 16.121H102.093ZM101.917 12.8035C101.917 12 101.412 11.3262 100.63 11.3262C99.7209 11.3262 99.1656 12.1555 99.1656 13.3218C99.1656 14.4622 99.7461 15.2398 100.604 15.2398C101.387 15.2398 101.917 14.54 101.917 13.7365V12.8035ZM110.927 16.2506C109.312 16.2506 108.277 15.0065 108.277 13.3478C108.277 11.6112 109.337 10.3672 111.028 10.3672C112.618 10.3672 113.678 11.5335 113.678 13.27C113.678 15.0065 112.568 16.2506 110.927 16.2506ZM110.978 11.2743C110.094 11.2743 109.539 12.1296 109.539 13.3218C109.539 14.4881 110.12 15.3434 110.978 15.3434C111.836 15.3434 112.416 14.4363 112.416 13.2959C112.391 12.1296 111.836 11.2743 110.978 11.2743ZM120.266 16.121H119.029V12.8812C119.029 11.8704 118.65 11.378 117.918 11.378C117.187 11.378 116.707 12.0259 116.707 12.7516V16.121H115.47V12.0778C115.47 11.5853 115.47 11.0411 115.42 10.4709H116.505L116.556 11.3521H116.581C116.909 10.756 117.59 10.3672 118.322 10.3672C119.483 10.3672 120.24 11.2743 120.24 12.7516V16.121H120.266ZM128.494 11.4039H127.156V14.1512C127.156 14.851 127.383 15.1879 127.863 15.1879C128.09 15.1879 128.267 15.162 128.418 15.1361L128.443 16.095C128.216 16.1987 127.888 16.2246 127.484 16.2246C126.525 16.2246 125.945 15.6804 125.945 14.2549V11.4039H125.137V10.4709H125.945V9.43414L127.156 9.07129V10.4709H128.494V11.4039ZM134.98 16.121H133.769V12.9071C133.769 11.8963 133.39 11.378 132.658 11.378C132.027 11.378 131.422 11.8186 131.422 12.7257V16.1469H130.21V7.85315H131.422V11.2484H131.447C131.825 10.6264 132.381 10.3154 133.113 10.3154C134.274 10.3154 134.98 11.2484 134.98 12.7257V16.121ZM141.618 13.6069H137.933C137.959 14.6696 138.64 15.2916 139.675 15.2916C140.23 15.2916 140.71 15.1879 141.164 15.0324L141.366 15.9136C140.836 16.1469 140.23 16.2506 139.523 16.2506C137.807 16.2506 136.772 15.1361 136.772 13.3996C136.772 11.6631 137.807 10.3672 139.372 10.3672C140.785 10.3672 141.669 11.4298 141.669 13.0627C141.669 13.2182 141.669 13.3996 141.618 13.6069ZM140.508 12.6998C140.508 11.8186 140.079 11.1966 139.296 11.1966C138.59 11.1966 138.034 11.8186 137.959 12.6998H140.508Z" fill="white"/>
<defs>
<linearGradient id="paint0_linear" x1="115.664" y1="48.1217" x2="115.664" y2="-644.452" gradientUnits="userSpaceOnUse">
<stop stop-color="#1A1A1A" stop-opacity="0.1"/>
<stop offset="0.123" stop-color="#212121" stop-opacity="0.151"/>
<stop offset="0.308" stop-color="#353535" stop-opacity="0.227"/>
<stop offset="0.532" stop-color="#575757" stop-opacity="0.318"/>
<stop offset="0.783" stop-color="#858585" stop-opacity="0.421"/>
<stop offset="1" stop-color="#B3B3B3" stop-opacity="0.51"/>
</linearGradient>
</defs>
</svg>
